:SAMPLES-PER-SECOND 24
:FULLY-SPECIFIED
:DEGREES
389
root  -1.78916 39.6825 20.7915 -1.96069 60.2243 -5.27026
RightUpLeg  -10.6887 1.57955 -7.03393
RightLeg  27.9745 0.993173 0.352128
RightFoot  -8.27628 -0.3059 8.80203
RightToes  -2.08645e-008 3.77894e-005 6.81332e-007
Spine  1.22975 -4.41743 -6.68039
Spine1  3.47629 -6.07246 8.60716
HEad  -29.029 -22.5781 6.64352
LeftShoulder1  6.82676 -12.8745 -35.649
LeftArm  14.421 10.6169 -28.4123
LeftForeArm  168.49 -64.8411 -158.952
LeftHand  -0.283334 -3.12667 4.10119
RightShoulder  3.83861 6.59158 32.1366
RightArm  9.54922 -30.6563 30.0748
RightForeArm  139.815 77.5843 129.721
RightHand  -0.310698 8.79151 -2.92228
LeftUpLeg  -6.90998 -5.68594 18.1553
LeftLeg  30.0805 3.04603 2.26604
LeftFoot  1.22208 2.2598 -20.436
LeftToes  1.24767e-006 1.47042e-008 1.32732e-009
390
root  -2.02948 38.6382 21.3765 -3.57129 58.3286 -6.90167
RightUpLeg  -11.4952 1.11019 -4.87097
RightLeg  31.1165 1.43524 0.69783
RightFoot  -15.4376 0.0722442 5.1493
RightToes  -2.08645e-008 3.77894e-005 6.81332e-007
Spine  1.05517 -3.36755 -3.72524
Spine1  4.14009 -4.57392 6.11767
HEad  -30.6324 -22.6878 7.37133
LeftShoulder1  7.04499 -12.9693 -36.7052
LeftArm  12.5838 7.92518 -27.2578
LeftForeArm  169.617 -66.2893 -157.709
LeftHand  -0.321493 -3.28464 4.54856
RightShoulder  3.75709 6.4305 31.9328
RightArm  9.53633 -23.837 29.1114
RightForeArm  125.961 79.5027 114.526
RightHand  -0.348704 8.8471 -3.22431
LeftUpLeg  -6.52592 -5.21837 19.7503
LeftLeg  33.3528 5.99635 4.59827
LeftFoot  -4.85762 1.45338 -24.951
LeftToes  1.24767e-006 1.47042e-008 1.32732e-009
391
root  -2.21003 37.9731 21.7524 -4.79761 55.5366 -8.67145
RightUpLeg  -13.3596 4.50951 -2.29359
RightLeg  34.1929 -0.803285 -0.839318
RightFoot  -18.7222 0.0663663 2.99446
RightToes  -2.08645e-008 3.77894e-005 6.81332e-007
Spine  0.370721 -2.58193 -0.760364
Spine1  5.62109 -3.49503 4.19988
HEad  -32.6573 -21.6457 7.88878
LeftShoulder1  7.47863 -13.3121 -38.3518
LeftArm  8.29288 9.19323 -27.5436
LeftForeArm  169.799 -69.8551 -153.559
LeftHand  -0.366748 -3.28958 5.15252
RightShoulder  3.78622 6.46006 32.1136
RightArm  8.37525 -17.7354 29.9619
RightForeArm  110.786 80.4953 96.6716
RightHand  -0.491726 8.31374 -4.53353
LeftUpLeg  -6.84541 -4.37007 21.5529
LeftLeg  37.1787 7.45644 6.39948
LeftFoot  -8.14197 0.850451 -28.1928
LeftToes  1.24767e-006 1.47042e-008 1.32732e-009
392
root  -2.27142 37.9813 21.9737 -4.49219 55.055 -8.58521
RightUpLeg  -13.1302 7.07111 -1.60086
RightLeg  33.4812 -2.62615 -2.1131
RightFoot  -19.1221 0.0869372 3.18595
RightToes  -2.08645e-008 3.77894e-005 6.81332e-007
Spine  0.725054 -2.99877 -1.2468
Spine1  5.96876 -4.08963 4.66026
HEad  -34.164 -20.1168 8.75383
LeftShoulder1  7.84164 -13.6444 -39.5498
LeftArm  3.87741 14.7782 -29.4275
LeftForeArm  165.045 -72.5497 -148.69
LeftHand  -0.417632 -2.81816 6.14285
RightShoulder  3.87191 6.54801 32.6352
RightArm  6.91192 -16.4087 32.3068
RightForeArm  109.862 80.5377 95.2704
RightHand  -0.518977 7.9894 -4.86315
LeftUpLeg  -9.31724 -5.35016 21.5504
LeftLeg  41.1456 8.36835 8.14413
LeftFoot  -4.12883 1.66458 -26.0523
LeftToes  1.24767e-006 1.47042e-008 1.32732e-009
393
root  -2.12714 38.5602 21.9175 -2.6366 55.7384 -7.48499
RightUpLeg  -11.9826 6.61826 -2.64565
RightLeg  29.1836 -2.6876 -1.86373
RightFoot  -16.3333 0.0481408 3.59918
RightToes  -2.08645e-008 3.77894e-005 6.81332e-007
Spine  0.897407 -3.74613 -2.09679
Spine1  5.3607 -4.96138 5.63837
HEad  -35.0391 -19.3957 9.39963
LeftShoulder1  8.05065 -13.8359 -40.2138
LeftArm  1.57215 21.6493 -31.2533
LeftForeArm  161.493 -72.3872 -148.409
LeftHand  -0.477347 -2.21947 7.47899
RightShoulder  3.94962 6.57131 33.3176
RightArm  6.49415 -19.1477 34.3068
RightForeArm  118.6 80.1133 106
RightHand  -0.516525 7.78244 -4.90937
LeftUpLeg  -12.4232 -4.72421 20.1547
LeftLeg  42.4259 8.45478 8.54588
LeftFoot  2.40701 2.3828 -19.7273
LeftToes  1.24767e-006 1.47042e-008 1.32732e-009
394
root  -1.85456 39.3992 21.6807 0.668945 54.0678 -5.73706
RightUpLeg  -11.9386 7.00133 -4.57049
RightLeg  23.7965 -1.33975 -0.871695
RightFoot  -11.08 -0.0865663 4.51432
RightToes  -2.08645e-008 3.77894e-005 6.81332e-007
Spine  -0.300688 -3.16177 -1.7409
Spine1  4.75625 -4.13484 5.01611
HEad  -34.9777 -19.8036 9.20343
LeftShoulder1  7.9628 -13.7621 -39.9199
LeftArm  1.35369 27.6664 -32.482
LeftForeArm  163.724 -70.6621 -151.584
LeftHand  -0.437 -2.49484 6.65531
RightShoulder  4.00093 6.596 33.728
RightArm  6.85315 -23.0684 34.7651
RightForeArm  126.397 79.5036 114.769
RightHand  -0.596174 7.96701 -5.53926
LeftUpLeg  -12.8963 -0.0153185 18.0963
LeftLeg  38.4593 4.96195 4.59693
LeftFoot  1.88193 2.08146 -17.8355
LeftToes  1.24767e-006 1.47042e-008 1.32732e-009
395
root  -1.54318 40.1337 21.3928 3.53699 50.4512 -4.07874
RightUpLeg  -12.3393 9.0201 -6.66568
RightLeg  19.0398 0.35515 -0.0825413
RightFoot  -5.87806 -0.321 5.88318
RightToes  -2.08645e-008 3.77894e-005 6.81332e-007
Spine  -1.35 -1.80649 -1.40211
Spine1  4.18719 -2.45521 3.69773
HEad  -34.0632 -19.8756 8.62359
LeftShoulder1  7.6299 -13.4835 -38.7745
LeftArm  2.31979 32.5076 -32.5795
LeftForeArm  167.478 -68.6769 -154.784
LeftHand  -0.301738 -2.75596 4.52472
RightShoulder  4.04537 6.67989 33.8369
RightArm  8.39915 -25.7334 33.639
RightForeArm  130.786 78.9939 119.826
RightHand  -0.512984 7.92782 -4.83196
LeftUpLeg  -10.5422 4.34953 16.0082
LeftLeg  30.8129 0.485568 0.662604
LeftFoot  -3.82768 1.43366 -21.27
LeftToes  1.24767e-006 1.47042e-008 1.32732e-009
396
root  -1.22277 40.4671 21.0157 5.07178 47.6688 -3.078
RightUpLeg  -12.5104 7.95873 -7.80348
RightLeg  16.1321 3.24357 -0.00651534
RightFoot  -2.91305 -0.46572 6.05395
RightToes  -2.08645e-008 3.77894e-005 6.81332e-007
Spine  -1.84853 -1.28759 -1.24796
Spine1  4.23657 -1.74008 2.80242
HEad  -33.1434 -18.8336 8.19992
LeftShoulder1  7.26885 -13.2009 -37.4274
LeftArm  4.62271 35.4837 -30.7055
LeftForeArm  169.158 -67.1162 -156.784
LeftHand  -0.257989 -2.7704 3.89419
RightShoulder  4.03713 6.72847 33.5686
RightArm  11.2873 -25.5134 31.9413
RightForeArm  131.47 78.8362 121.016
RightHand  -0.377306 8.20857 -3.59164
LeftUpLeg  -7.89232 4.2264 14.294
LeftLeg  23.2793 0.140914 0.381367
LeftFoot  -7.16162 0.885652 -22.7512
LeftToes  1.24767e-006 1.47042e-008 1.32732e-009
397
root  -0.937351 40.3068 20.5228 5.78784 46.2571 -2.59369
RightUpLeg  -13.2353 8.1163 -8.77886
RightLeg  15.9013 2.71628 -0.322961
RightFoot  -3.24493 -0.426536 5.70511
RightToes  -2.08645e-008 3.77894e-005 6.81332e-007
Spine  -2.10558 -1.57262 -0.977833
Spine1  4.71559 -1.93333 2.24071
HEad  -32.4604 -17.6303 7.7137
LeftShoulder1  6.89961 -12.9463 -35.9002
LeftArm  7.36773 36.2343 -27.9558
LeftForeArm  169.074 -66.8293 -157.078
LeftHand  -0.254628 -3.18702 3.69226
RightShoulder  3.90667 6.63885 32.6312
RightArm  13.9027 -23.4727 30.5529
RightForeArm  133.506 78.6439 122.769
RightHand  -0.298256 8.44921 -2.87788
LeftUpLeg  -6.4578 1.68243 12.9733
LeftLeg  19.2408 0.543876 0.550761
LeftFoot  -7.62294 0.726564 -20.8625
LeftToes  1.24767e-006 1.47042e-008 1.32732e-009
398
root  -0.720297 39.691 19.9211 5.47253 45.2654 -2.65063
RightUpLeg  -14.8588 11.9173 -10.0778
RightLeg  18.7834 -1.23423 -0.816609
RightFoot  -6.50954 -0.28466 5.67108
RightToes  -2.08645e-008 3.77894e-005 6.81332e-007
Spine  -0.8826 -1.8555 -0.842607
Spine1  4.48503 -2.29808 2.2459
HEad  -32.3975 -16.6281 6.81817
LeftShoulder1  6.71875 -12.8359 -35.0972
LeftArm  8.90119 34.538 -25.1142
LeftForeArm  166.649 -67.9665 -155.54
LeftHand  -0.204067 -3.39646 2.94262
RightShoulder  3.71827 6.45584 31.4411
RightArm  15.1668 -20.8752 28.924
RightForeArm  138.99 77.7461 128.773
RightHand  -0.285926 8.40487 -2.78211
LeftUpLeg  -5.83477 -0.000152403 11.9389
LeftLeg  19.342 -0.812384 0.00168972
LeftFoot  -11.0256 0.115723 -18.9613
LeftToes  1.24767e-006 1.47042e-008 1.32732e-009
399
root  -0.586556 38.8331 19.1953 4.81958 45.1813 -2.33905
RightUpLeg  -17.4946 12.7716 -11.4622
RightLeg  25.0943 -2.05891 -1.27235
RightFoot  -10.7611 -0.103924 6.07769
RightToes  -2.08645e-008 3.77894e-005 6.81332e-007
Spine  1.88568 -2.25583 -1.90767
Spine1  4.31493 -3.06569 3.20477
HEad  -34.0278 -15.4607 6.16304
LeftShoulder1  7.0293 -13.0726 -36.353
LeftArm  9.07468 29.2292 -21.4079
LeftForeArm  162.693 -70.2337 -152.08
LeftHand  -0.238391 -3.008 3.52937
RightShoulder  3.60871 6.31325 30.8621
RightArm  13.9336 -17.2794 27.5358
RightForeArm  139.653 77.5644 129.762
RightHand  -0.314554 8.34317 -3.03313
LeftUpLeg  -6.27383 -2.04349 10.2217
LeftLeg  22.3973 1.07407 0.824047
LeftFoot  -17.8017 -0.839872 -16.6598
LeftToes  1.24767e-006 1.47042e-008 1.32732e-009
400
root  -0.552126 38.048 18.3877 5.38086 46.6583 -0.571106
RightUpLeg  -22.1277 10.8485 -14.2625
RightLeg  34.7938 -0.6124 -0.68394
RightFoot  -13.0819 0.0432178 8.94343
RightToes  -2.08645e-008 3.77894e-005 6.81332e-007
Spine  4.796 -2.75456 -4.63884
Spine1  5.04081 -4.21771 5.11892
HEad  -37.1412 -14.8801 6.94428
LeftShoulder1  7.61483 -13.5354 -38.5591
LeftArm  8.28768 20.9251 -17.8156
LeftForeArm  158.677 -73.7043 -145.299
LeftHand  -0.354927 -2.66358 5.33399
RightShoulder  3.6201 6.28691 31.0807
RightArm  9.20524 -14.8018 27.8785
RightForeArm  128.058 79.267 116.98
RightHand  -0.461175 8.49184 -4.22894
LeftUpLeg  -8.64155 -5.55576 7.38887
LeftLeg  27.1945 4.59158 2.90091
LeftFoot  -22.9533 -1.33769 -14.4007
LeftToes  1.24767e-006 1.47042e-008 1.32732e-009
